HIERARCHY
ROOT Hips
{
  OFFSET -32.5998 29.0326 120.673
  CHANNELS 6 Xposition Yposition Zposition Zrotation Xrotation Yrotation
  JOINT LeftUpLeg
  {
    OFFSET 8.64259 1.95398 -2.38835
    CHANNELS 3 Zrotation Xrotation Yrotation
    JOINT LeftLeg
    {
      OFFSET 43.7702 0 0
      CHANNELS 3 Zrotation Xrotation Yrotation
      JOINT LeftFoot
      {
        OFFSET 40.6238 0 0
        CHANNELS 3 Zrotation Xrotation Yrotation
        JOINT LeftToeBase
        {
          OFFSET 12.7242 0 0
          CHANNELS 3 Zrotation Xrotation Yrotation
          End Site
          {
            OFFSET 0 0 0
          }
        }
      }
    }
  }
  JOINT RightUpLeg
  {
    OFFSET -8.2249 1.95398 -2.59336
    CHANNELS 3 Zrotation Xrotation Yrotation
    JOINT RightLeg
    {
      OFFSET 43.5653 0 0
      CHANNELS 3 Zrotation Xrotation Yrotation
      JOINT RightFoot
      {
        OFFSET 40.6238 0 0
        CHANNELS 3 Zrotation Xrotation Yrotation
        JOINT RightToeBase
        {
          OFFSET 12.7242 0 0
          CHANNELS 3 Zrotation Xrotation Yrotation
          End Site
          {
            OFFSET 0 0 0
          }
        }
      }
    }
  }
  JOINT Spine
  {
    OFFSET 0.165834 0.87714 6.61349
    CHANNELS 3 Zrotation Xrotation Yrotation
    JOINT Spine1
    {
      OFFSET 7.38963 1.71661e-005 0
      CHANNELS 3 Zrotation Xrotation Yrotation
      JOINT Spine2
      {
        OFFSET 11.9445 1.14441e-005 0
        CHANNELS 3 Zrotation Xrotation Yrotation
        JOINT Spine3
        {
          OFFSET 14.7254 4.19617e-005 0
          CHANNELS 3 Zrotation Xrotation Yrotation
          JOINT Spine4
          {
            OFFSET 10.9679 0 0
            CHANNELS 3 Zrotation Xrotation Yrotation
            JOINT RightShoulder
            {
              OFFSET 2.46616 -1.6653 3.69651
              CHANNELS 3 Zrotation Xrotation Yrotation
              JOINT RightArm
              {
                OFFSET 13.0012 0 0
                CHANNELS 3 Zrotation Xrotation Yrotation
                JOINT RightForeArm
                {
                  OFFSET 28.7848 1.62311e-005 0
                  CHANNELS 3 Zrotation Xrotation Yrotation
                  JOINT RightHand
                  {
                    OFFSET 26.5688 1.62095e-005 0
                    CHANNELS 3 Zrotation Xrotation Yrotation
                    End Site
                    {
                      OFFSET 0 0 0
                    }
                  }
                }
              }
            }
            JOINT LeftShoulder
            {
              OFFSET 2.38034 -1.29275 -3.7523
              CHANNELS 3 Zrotation Xrotation Yrotation
              JOINT LeftArm
              {
                OFFSET 16.3182 6.07031e-005 0
                CHANNELS 3 Zrotation Xrotation Yrotation
                JOINT LeftForeArm
                {
                  OFFSET 27.0901 0 0
                  CHANNELS 3 Zrotation Xrotation Yrotation
                  JOINT LeftHand
                  {
                    OFFSET 24.5451 1.51738e-005 0
                    CHANNELS 3 Zrotation Xrotation Yrotation
                    End Site
                    {
                      OFFSET 0 0 0
                    }
                  }
                }
              }
            }
            JOINT Neck
            {
              OFFSET 5.0226 -0.0266342 0
              CHANNELS 3 Zrotation Xrotation Yrotation
              JOINT Head
              {
                OFFSET 6.69364 2.86102e-005 0
                CHANNELS 3 Zrotation Xrotation Yrotation
                End Site
                {
                  OFFSET 0 0 0
                }
              }
            }
          }
        }
      }
    }
  }
}
MOTION
Frames:	9
Frame Time:	0.0416667
-13.8353 92.9467 -15.006 -105.063 44.4238 -81.6929 -173.245 8.93489 88.3641 -50.165 10.8192 0.617831 86.8548 16.8094 -0.394193 25.7019 -4.24453 6.63736 175.903 34.7758 87.3755 -88.0687 -6.69781 -4.0631 71.9064 -6.11262 -4.0725 15.7442 3.03799 7.93134 0.405268 8.47215 -89.8308 9.93088 0.884627 0.262554 -1.73975 0.895302 0.223367 -24.277 0.764805 0.516299 -4.26435 0.764798 0.516298 91.9182 -28.8843 -103.301 31.5742 15.8349 4.3028 -23.0514 16.6059 -129.611 -5.62939 -0.193071 -1.24877 -86.8737 -44.9421 82.5528 -11.0751 29.5108 2.46842 30.3154 -25.9854 -110.579 -9.52969 0.151717 -8.23759 7.99232 33.6543 6.28318 -15.6025 30.7276 13.4466 
-7.8547 93.7044 -9.01363 -104.934 44.4872 -82.7057 -174.392 14.6235 86.0745 -48.3603 11.4654 0.221145 78.7193 11.8814 2.26261 23.6548 -3.3283 2.56295 173.449 26.2898 85.6843 -94.0282 -4.35185 -4.1411 69.8587 -5.06172 -4.47812 13.1255 3.75515 8.72217 1.07536 8.40971 -89.8602 10.0549 2.2067 0.0941527 -1.61422 2.2087 -0.00311029 -24.1631 2.07633 0.753292 -4.15044 2.07632 0.753283 92.7379 -24.6519 -103.057 30.1532 21.9156 -1.99894 -21.2331 13.5696 -131.809 -8.57609 -0.314675 -0.962581 -87.1197 -46.321 82.4105 -19.1523 26.4302 22.0755 26.6873 -25.6986 -115.365 -9.14273 0.247151 -10.0739 3.67039 33.3189 10.3483 -12.7014 30.4937 11.9218 
-2.15244 96.1368 -3.90074 -108.647 44.2965 -79.6059 -175.072 13.3048 87.0414 -39.2052 13.4701 0.12075 68.9603 5.25555 2.25331 19.7714 -5.1288 2.58669 172.268 10.5093 84.3081 -89.7395 -10.5245 -4.54118 63.8888 -1.49694 -4.86615 11.2681 4.26995 9.22851 1.83786 8.5576 -89.9531 9.76533 3.68483 -0.198874 -1.90044 3.67251 -0.361086 -24.4758 3.57403 0.919208 -4.4631 3.57401 0.919204 92.4101 -21.6132 -104.976 28.0385 26.3629 -5.02448 -20.332 11.4859 -132.357 -8.73514 -0.338836 -0.762004 -85.0762 -44.1279 85.3046 -22.4966 24.5497 35.2876 22.9045 -25.7736 -120.983 -7.05004 0.17088 -10.7367 -2.89245 31.404 11.088 -11.0255 29.3324 12.783 
4.02125 98.7949 1.60284 -109.726 43.7739 -79.1931 -176.075 11.3945 87.4276 -23.6022 15.5468 -0.100386 52.4884 -5.56801 -0.406459 18.4364 -3.744 -1.1444 171.628 -1.98588 83.9546 -78.1967 -19.3702 -5.28267 59.2285 1.57749 -4.15044 12.1123 3.43889 10.4692 2.47827 8.43431 -89.9338 10.0181 4.96906 -0.2789 -1.64339 4.95197 -0.497877 -24.2519 4.8226 1.23098 -4.23929 4.8226 1.23098 93.3003 -16.9366 -104.832 27.4939 25.8299 -6.83355 -19.4534 10.6695 -132.491 -10.2453 -0.58157 1.50763 -83.6909 -39.9496 87.0163 -24.6335 24.6138 45.376 19.4499 -25.4112 -125.631 -7.35662 0.279026 -12.8727 -8.49093 29.8758 11.3501 -10.4701 28.5555 11.6542 
11.1986 99.5229 7.8925 -105.119 42.3818 -83.0168 -177.449 16.7101 87.0938 -18.747 22.751 0.0206253 54.3086 -4.38239 -2.43951 14.4621 -10.03 6.46514 172.105 -8.40438 86.4177 -66.3774 -19.3828 -4.91639 61.1176 0.351611 -1.58954 15.4422 2.03447 10.9371 2.58396 8.08411 -89.6742 10.7116 5.29592 0.160559 -0.94852 5.29784 -0.0733614 -23.5636 5.00218 1.74879 -3.55094 5.0022 1.74879 94.6398 -12.3897 -103.45 26.2559 22.9683 -9.53563 -18.427 10.7848 -132.814 -11.0378 -0.593426 1.12878 -84.7911 -35.4548 84.3705 -26.4291 19.7869 53.3311 19.7578 -25.4445 -128.1 -8.15789 0.467747 -15.3544 -6.35556 30.2747 10.8693 -12.5654 28.6777 10.3687 
19.375 98.8124 14.9268 -98.5545 40.647 -87.5448 -178.229 26.2815 87.2184 -25.3227 24.7735 -0.0475898 57.1474 -2.5402 -0.922446 17.3597 -8.43688 6.44303 174.051 -7.36535 89.6035 -57.8053 -17.362 -4.22967 65.1408 -2.3485 -1.97783 17.8156 1.32263 10.539 2.36503 7.81263 -89.4779 11.2448 4.94973 0.550531 -0.416742 4.96915 0.331599 -23.0177 4.55499 2.01564 -3.00504 4.55501 2.01565 95.2805 -10.3595 -102.583 23.1887 23.8641 -11.7227 -12.502 5.69904 -134.728 -14.8272 -0.751849 0.717356 -85.3452 -34.1662 83.1351 -24.9076 18.6776 50.3262 19.7746 -24.5476 -127.677 -6.6416 0.314199 -15.1955 -1.49418 32.142 13.4758 -12.5605 29.7753 8.64005 
27.6129 97.4595 22.1851 -96.3778 39.2672 -89.504 -176.631 32.2095 86.63 -39.1947 19.1509 -1.00089 64.3724 1.6571 -1.15454 19.8744 -6.49664 5.27837 175.392 -4.67598 90.854 -53.0216 -17.8122 -4.59342 67.3011 -3.9428 -3.87865 17.2265 1.53863 10.5287 2.10391 7.7659 -89.4283 11.3349 4.45309 0.693558 -0.328538 4.47929 0.496505 -22.9149 4.03846 2.00185 -2.90223 4.03848 2.00185 94.6218 -13.1264 -103.151 20.6229 21.0859 -7.88999 -12.4251 6.98711 -136.011 -12.8027 -0.470117 -0.939127 -85.4326 -36.8955 83.5033 -21.2188 19.5555 39.5506 19.6852 -23.2414 -125.438 -6.76726 0.282077 -13.838 0.301059 34.3105 15.7172 -13.3302 31.3803 8.5496 
35.6949 95.4026 29.6944 -96.8781 39.5633 -90.5601 -172.554 35.0634 84.8172 -57.6735 13.7266 -1.8002 73.1036 6.61399 0.291306 20.7988 -6.02844 5.22215 176.057 -2.61063 89.2352 -49.9923 -17.6309 -5.80585 71.3217 -7.50395 -6.17828 32.0718 -3.58087 10.4418 1.78419 7.95418 -89.3527 10.9534 3.85174 0.922253 -0.712018 3.88857 0.751591 -23.2821 3.39635 2.03834 -3.26944 3.39635 2.03833 93.7787 -16.2347 -103.94 20.9093 16.4832 -2.98124 -16.8966 11.8272 -134.102 -13.8597 -0.896126 1.68341 -86.5833 -40.7286 82.2421 -16.0837 15.2322 27.5093 18.0407 -19.3873 -122.381 -3.85512 -0.0170966 -10.1298 1.45744 36.8023 17.4996 -14.6981 33.4055 8.48672 
43.8806 93.3294 37.1847 -97.1418 40.8711 -91.7677 -167.291 35.277 83.6119 -74.2747 10.8276 -1.25984 75.3799 7.55676 1.86754 20.0006 -5.77882 4.03325 176.554 2.62854 89.2283 -52.1017 -16.9452 -6.8878 82.8757 -16.3165 -4.69909 38.4212 -5.114 6.31409 1.37434 8.05243 -89.3701 10.7563 3.02719 0.971817 -0.911359 3.06703 0.837532 -23.4656 2.59515 1.83713 -3.453 2.59512 1.83712 93.908 -17.9876 -102.894 24.5985 9.34074 1.58911 -17.2886 13.3597 -129.938 -12.4679 -0.453081 -1.78955 -87.206 -47.6289 82.5076 -8.4261 10.6328 14.9571 15.2509 -15.6346 -121.187 -3.99218 -0.00958027 -10.1169 -1.38226 38.6845 24.0264 -10.9066 35.2977 6.45015 
